<mxfile host="app.diagrams.net" agent="Mozilla/5.0 (Windows NT 10.0; Win64; x64) AppleWebKit/537.36 (KHTML, like Gecko) Chrome/128.0.0.0 Safari/537.36" version="24.7.6">
  <diagram name="Page-1" id="NV8bkWCi1r46Ss_pfdNT">
    <mxGraphModel dx="1034" dy="378" grid="1" gridSize="10" guides="1" tooltips="1" connect="1" arrows="1" fold="1" page="1" pageScale="1" pageWidth="850" pageHeight="1100" math="0" shadow="0">
      <root>
        <mxCell id="0" />
        <mxCell id="1" parent="0" />
        <mxCell id="7v5UEaMuyqe8QDUwAqOd-81" value="caratteristica" style="whiteSpace=wrap;html=1;align=center;" parent="1" vertex="1">
          <mxGeometry x="140" y="360" width="100" height="40" as="geometry" />
        </mxCell>
        <mxCell id="7v5UEaMuyqe8QDUwAqOd-82" value="richiesta_ordine" style="whiteSpace=wrap;html=1;align=center;" parent="1" vertex="1">
          <mxGeometry x="520" y="190" width="100" height="40" as="geometry" />
        </mxCell>
        <mxCell id="7v5UEaMuyqe8QDUwAqOd-83" value="compone" style="shape=rhombus;perimeter=rhombusPerimeter;whiteSpace=wrap;html=1;align=center;" parent="1" vertex="1">
          <mxGeometry x="290" y="285" width="120" height="60" as="geometry" />
        </mxCell>
        <mxCell id="7v5UEaMuyqe8QDUwAqOd-84" value="" style="endArrow=none;html=1;rounded=0;entryX=0.5;entryY=1;entryDx=0;entryDy=0;exitX=0.5;exitY=0;exitDx=0;exitDy=0;" parent="1" source="7v5UEaMuyqe8QDUwAqOd-85" target="7v5UEaMuyqe8QDUwAqOd-83" edge="1">
          <mxGeometry width="50" height="50" relative="1" as="geometry">
            <mxPoint x="350" y="340" as="sourcePoint" />
            <mxPoint x="330" y="310" as="targetPoint" />
          </mxGeometry>
        </mxCell>
        <mxCell id="7v5UEaMuyqe8QDUwAqOd-85" value="valore" style="ellipse;whiteSpace=wrap;html=1;" parent="1" vertex="1">
          <mxGeometry x="305" y="360" width="90" height="40" as="geometry" />
        </mxCell>
        <mxCell id="7v5UEaMuyqe8QDUwAqOd-86" value="" style="endArrow=none;html=1;rounded=0;exitX=0.5;exitY=0;exitDx=0;exitDy=0;entryX=0.5;entryY=1;entryDx=0;entryDy=0;" parent="1" source="7v5UEaMuyqe8QDUwAqOd-81" target="7v5UEaMuyqe8QDUwAqOd-92" edge="1">
          <mxGeometry width="50" height="50" relative="1" as="geometry">
            <mxPoint x="290" y="200" as="sourcePoint" />
            <mxPoint x="340" y="150" as="targetPoint" />
          </mxGeometry>
        </mxCell>
        <mxCell id="7v5UEaMuyqe8QDUwAqOd-87" value="" style="endArrow=none;html=1;rounded=0;entryX=0;entryY=0.5;entryDx=0;entryDy=0;exitX=0.967;exitY=0.51;exitDx=0;exitDy=0;exitPerimeter=0;" parent="1" source="LzhHTXdj2_SCo1Qwo-w6-12" target="7v5UEaMuyqe8QDUwAqOd-82" edge="1">
          <mxGeometry width="50" height="50" relative="1" as="geometry">
            <mxPoint x="460" y="190" as="sourcePoint" />
            <mxPoint x="500" y="160" as="targetPoint" />
          </mxGeometry>
        </mxCell>
        <mxCell id="7v5UEaMuyqe8QDUwAqOd-89" value="categoria" style="rounded=0;whiteSpace=wrap;html=1;" parent="1" vertex="1">
          <mxGeometry x="140" y="190" width="100" height="40" as="geometry" />
        </mxCell>
        <mxCell id="7v5UEaMuyqe8QDUwAqOd-92" value="definisce" style="shape=rhombus;perimeter=rhombusPerimeter;whiteSpace=wrap;html=1;align=center;" parent="1" vertex="1">
          <mxGeometry x="130" y="260" width="120" height="60" as="geometry" />
        </mxCell>
        <mxCell id="7v5UEaMuyqe8QDUwAqOd-99" value="n" style="text;strokeColor=none;fillColor=none;spacingLeft=4;spacingRight=4;overflow=hidden;rotatable=0;points=[[0,0.5],[1,0.5]];portConstraint=eastwest;fontSize=12;whiteSpace=wrap;html=1;" parent="1" vertex="1">
          <mxGeometry x="190" y="335" width="30" height="25" as="geometry" />
        </mxCell>
        <mxCell id="7v5UEaMuyqe8QDUwAqOd-101" value="n" style="text;strokeColor=none;fillColor=none;spacingLeft=4;spacingRight=4;overflow=hidden;rotatable=0;points=[[0,0.5],[1,0.5]];portConstraint=eastwest;fontSize=12;whiteSpace=wrap;html=1;" parent="1" vertex="1">
          <mxGeometry x="500" y="182.5" width="40" height="30" as="geometry" />
        </mxCell>
        <mxCell id="7v5UEaMuyqe8QDUwAqOd-102" value="" style="endArrow=none;html=1;rounded=0;exitX=1;exitY=0.25;exitDx=0;exitDy=0;entryX=0.23;entryY=0.875;entryDx=0;entryDy=0;entryPerimeter=0;" parent="1" source="7v5UEaMuyqe8QDUwAqOd-82" target="7v5UEaMuyqe8QDUwAqOd-106" edge="1">
          <mxGeometry width="50" height="50" relative="1" as="geometry">
            <mxPoint x="620" y="210" as="sourcePoint" />
            <mxPoint x="670" y="180" as="targetPoint" />
          </mxGeometry>
        </mxCell>
        <mxCell id="7v5UEaMuyqe8QDUwAqOd-103" value="" style="endArrow=none;html=1;rounded=0;exitX=1;exitY=0.5;exitDx=0;exitDy=0;" parent="1" source="7v5UEaMuyqe8QDUwAqOd-82" target="7v5UEaMuyqe8QDUwAqOd-107" edge="1">
          <mxGeometry width="50" height="50" relative="1" as="geometry">
            <mxPoint x="660" y="250" as="sourcePoint" />
            <mxPoint x="670" y="210" as="targetPoint" />
          </mxGeometry>
        </mxCell>
        <mxCell id="7v5UEaMuyqe8QDUwAqOd-104" value="" style="endArrow=none;html=1;rounded=0;exitX=1;exitY=0.75;exitDx=0;exitDy=0;entryX=0;entryY=0;entryDx=0;entryDy=0;" parent="1" source="7v5UEaMuyqe8QDUwAqOd-82" target="7v5UEaMuyqe8QDUwAqOd-108" edge="1">
          <mxGeometry width="50" height="50" relative="1" as="geometry">
            <mxPoint x="640" y="300" as="sourcePoint" />
            <mxPoint x="670" y="240" as="targetPoint" />
          </mxGeometry>
        </mxCell>
        <mxCell id="7v5UEaMuyqe8QDUwAqOd-105" value="" style="endArrow=none;html=1;rounded=0;entryX=1;entryY=1;entryDx=0;entryDy=0;" parent="1" target="7v5UEaMuyqe8QDUwAqOd-82" edge="1">
          <mxGeometry width="50" height="50" relative="1" as="geometry">
            <mxPoint x="670" y="280" as="sourcePoint" />
            <mxPoint x="660" y="240" as="targetPoint" />
          </mxGeometry>
        </mxCell>
        <mxCell id="7v5UEaMuyqe8QDUwAqOd-106" value="note" style="ellipse;whiteSpace=wrap;html=1;align=center;" parent="1" vertex="1">
          <mxGeometry x="650" y="140" width="100" height="40" as="geometry" />
        </mxCell>
        <mxCell id="7v5UEaMuyqe8QDUwAqOd-107" value="stato" style="ellipse;whiteSpace=wrap;html=1;align=center;" parent="1" vertex="1">
          <mxGeometry x="700" y="190" width="100" height="40" as="geometry" />
        </mxCell>
        <mxCell id="7v5UEaMuyqe8QDUwAqOd-108" value="data" style="ellipse;whiteSpace=wrap;html=1;align=center;" parent="1" vertex="1">
          <mxGeometry x="680" y="240" width="100" height="40" as="geometry" />
        </mxCell>
        <mxCell id="7v5UEaMuyqe8QDUwAqOd-109" value="&lt;u&gt;codice richiesta&lt;/u&gt;" style="ellipse;whiteSpace=wrap;html=1;align=center;" parent="1" vertex="1">
          <mxGeometry x="630" y="280" width="100" height="40" as="geometry" />
        </mxCell>
        <mxCell id="7v5UEaMuyqe8QDUwAqOd-112" value="" style="endArrow=none;html=1;rounded=0;entryX=0.25;entryY=1;entryDx=0;entryDy=0;exitX=0.5;exitY=0;exitDx=0;exitDy=0;" parent="1" source="7v5UEaMuyqe8QDUwAqOd-113" target="7v5UEaMuyqe8QDUwAqOd-82" edge="1">
          <mxGeometry width="50" height="50" relative="1" as="geometry">
            <mxPoint x="520" y="270" as="sourcePoint" />
            <mxPoint x="550" y="280" as="targetPoint" />
          </mxGeometry>
        </mxCell>
        <mxCell id="7v5UEaMuyqe8QDUwAqOd-113" value="ordina" style="rhombus;whiteSpace=wrap;html=1;" parent="1" vertex="1">
          <mxGeometry x="440" y="260" width="80" height="60" as="geometry" />
        </mxCell>
        <mxCell id="7v5UEaMuyqe8QDUwAqOd-114" value="prende in carico" style="rhombus;whiteSpace=wrap;html=1;" parent="1" vertex="1">
          <mxGeometry x="535" y="265" width="75" height="70" as="geometry" />
        </mxCell>
        <mxCell id="7v5UEaMuyqe8QDUwAqOd-115" value="" style="endArrow=none;html=1;rounded=0;entryX=0.5;entryY=1;entryDx=0;entryDy=0;" parent="1" source="7v5UEaMuyqe8QDUwAqOd-114" target="7v5UEaMuyqe8QDUwAqOd-82" edge="1">
          <mxGeometry width="50" height="50" relative="1" as="geometry">
            <mxPoint x="520" y="400" as="sourcePoint" />
            <mxPoint x="570" y="350" as="targetPoint" />
          </mxGeometry>
        </mxCell>
        <mxCell id="7v5UEaMuyqe8QDUwAqOd-116" value="" style="endArrow=none;html=1;rounded=0;exitX=0.5;exitY=1;exitDx=0;exitDy=0;" parent="1" source="7v5UEaMuyqe8QDUwAqOd-113" edge="1">
          <mxGeometry width="50" height="50" relative="1" as="geometry">
            <mxPoint x="450" y="400" as="sourcePoint" />
            <mxPoint x="490" y="400" as="targetPoint" />
          </mxGeometry>
        </mxCell>
        <mxCell id="7v5UEaMuyqe8QDUwAqOd-117" value="" style="endArrow=none;html=1;rounded=0;entryX=0.5;entryY=1;entryDx=0;entryDy=0;" parent="1" target="7v5UEaMuyqe8QDUwAqOd-114" edge="1">
          <mxGeometry width="50" height="50" relative="1" as="geometry">
            <mxPoint x="550" y="400" as="sourcePoint" />
            <mxPoint x="590" y="350" as="targetPoint" />
          </mxGeometry>
        </mxCell>
        <mxCell id="7v5UEaMuyqe8QDUwAqOd-118" value="utente" style="whiteSpace=wrap;html=1;align=center;" parent="1" vertex="1">
          <mxGeometry x="470" y="400" width="100" height="40" as="geometry" />
        </mxCell>
        <mxCell id="7v5UEaMuyqe8QDUwAqOd-119" value="" style="endArrow=none;html=1;rounded=0;exitX=0.438;exitY=1;exitDx=0;exitDy=0;entryX=0.07;entryY=0.75;entryDx=0;entryDy=0;entryPerimeter=0;exitPerimeter=0;" parent="1" source="7v5UEaMuyqe8QDUwAqOd-125" target="7v5UEaMuyqe8QDUwAqOd-126" edge="1">
          <mxGeometry relative="1" as="geometry">
            <mxPoint x="570" y="410" as="sourcePoint" />
            <mxPoint x="630" y="410" as="targetPoint" />
          </mxGeometry>
        </mxCell>
        <mxCell id="7v5UEaMuyqe8QDUwAqOd-121" value="1" style="text;strokeColor=none;fillColor=none;spacingLeft=4;spacingRight=4;overflow=hidden;rotatable=0;points=[[0,0.5],[1,0.5]];portConstraint=eastwest;fontSize=12;whiteSpace=wrap;html=1;" parent="1" vertex="1">
          <mxGeometry x="470" y="380" width="40" height="30" as="geometry" />
        </mxCell>
        <mxCell id="7v5UEaMuyqe8QDUwAqOd-123" value="n" style="text;strokeColor=none;fillColor=none;spacingLeft=4;spacingRight=4;overflow=hidden;rotatable=0;points=[[0,0.5],[1,0.5]];portConstraint=eastwest;fontSize=12;whiteSpace=wrap;html=1;" parent="1" vertex="1">
          <mxGeometry x="530" y="225" width="40" height="30" as="geometry" />
        </mxCell>
        <mxCell id="7v5UEaMuyqe8QDUwAqOd-124" value="n" style="text;strokeColor=none;fillColor=none;spacingLeft=4;spacingRight=4;overflow=hidden;rotatable=0;points=[[0,0.5],[1,0.5]];portConstraint=eastwest;fontSize=12;whiteSpace=wrap;html=1;" parent="1" vertex="1">
          <mxGeometry x="570" y="220" width="40" height="30" as="geometry" />
        </mxCell>
        <mxCell id="7v5UEaMuyqe8QDUwAqOd-125" value="1" style="text;strokeColor=none;fillColor=none;spacingLeft=4;spacingRight=4;overflow=hidden;rotatable=0;points=[[0,0.5],[1,0.5]];portConstraint=eastwest;fontSize=12;whiteSpace=wrap;html=1;" parent="1" vertex="1">
          <mxGeometry x="552.5" y="380" width="40" height="30" as="geometry" />
        </mxCell>
        <mxCell id="7v5UEaMuyqe8QDUwAqOd-126" value="&lt;u&gt;email&lt;/u&gt;" style="ellipse;whiteSpace=wrap;html=1;align=center;" parent="1" vertex="1">
          <mxGeometry x="620" y="360" width="100" height="40" as="geometry" />
        </mxCell>
        <mxCell id="7v5UEaMuyqe8QDUwAqOd-127" value="" style="endArrow=none;html=1;rounded=0;exitX=1;exitY=0.75;exitDx=0;exitDy=0;" parent="1" source="7v5UEaMuyqe8QDUwAqOd-118" edge="1">
          <mxGeometry relative="1" as="geometry">
            <mxPoint x="610" y="470" as="sourcePoint" />
            <mxPoint x="650" y="430" as="targetPoint" />
          </mxGeometry>
        </mxCell>
        <mxCell id="7v5UEaMuyqe8QDUwAqOd-128" value="password" style="ellipse;whiteSpace=wrap;html=1;align=center;" parent="1" vertex="1">
          <mxGeometry x="650" y="410" width="100" height="40" as="geometry" />
        </mxCell>
        <mxCell id="7v5UEaMuyqe8QDUwAqOd-129" value="" style="endArrow=none;html=1;rounded=0;" parent="1" edge="1">
          <mxGeometry relative="1" as="geometry">
            <mxPoint x="530" y="440" as="sourcePoint" />
            <mxPoint x="560" y="490" as="targetPoint" />
          </mxGeometry>
        </mxCell>
        <mxCell id="7v5UEaMuyqe8QDUwAqOd-130" value="tipologia_utente" style="whiteSpace=wrap;html=1;align=center;" parent="1" vertex="1">
          <mxGeometry x="670" y="500" width="100" height="40" as="geometry" />
        </mxCell>
        <mxCell id="7v5UEaMuyqe8QDUwAqOd-131" value="n" style="text;strokeColor=none;fillColor=none;spacingLeft=4;spacingRight=4;overflow=hidden;rotatable=0;points=[[0,0.5],[1,0.5]];portConstraint=eastwest;fontSize=12;whiteSpace=wrap;html=1;" parent="1" vertex="1">
          <mxGeometry x="520" y="440" width="40" height="30" as="geometry" />
        </mxCell>
        <mxCell id="7v5UEaMuyqe8QDUwAqOd-132" value="1" style="text;strokeColor=none;fillColor=none;spacingLeft=4;spacingRight=4;overflow=hidden;rotatable=0;points=[[0,0.5],[1,0.5]];portConstraint=eastwest;fontSize=12;whiteSpace=wrap;html=1;" parent="1" vertex="1">
          <mxGeometry x="650" y="500" width="40" height="30" as="geometry" />
        </mxCell>
        <mxCell id="7v5UEaMuyqe8QDUwAqOd-133" value="" style="endArrow=none;html=1;rounded=0;exitX=0.5;exitY=1;exitDx=0;exitDy=0;" parent="1" source="7v5UEaMuyqe8QDUwAqOd-130" edge="1">
          <mxGeometry relative="1" as="geometry">
            <mxPoint x="750" y="509.5" as="sourcePoint" />
            <mxPoint x="720" y="630" as="targetPoint" />
          </mxGeometry>
        </mxCell>
        <mxCell id="7v5UEaMuyqe8QDUwAqOd-134" value="&lt;u&gt;nome&lt;/u&gt;" style="ellipse;whiteSpace=wrap;html=1;align=center;" parent="1" vertex="1">
          <mxGeometry x="670" y="610" width="100" height="40" as="geometry" />
        </mxCell>
        <mxCell id="7v5UEaMuyqe8QDUwAqOd-136" value="&lt;u&gt;nome&lt;/u&gt;" style="ellipse;whiteSpace=wrap;html=1;align=center;" parent="1" vertex="1">
          <mxGeometry x="80" y="120" width="100" height="40" as="geometry" />
        </mxCell>
        <mxCell id="7v5UEaMuyqe8QDUwAqOd-138" value="padre" style="ellipse;whiteSpace=wrap;html=1;align=center;" parent="1" vertex="1">
          <mxGeometry x="210" y="120" width="100" height="40" as="geometry" />
        </mxCell>
        <mxCell id="7v5UEaMuyqe8QDUwAqOd-140" value="&lt;u&gt;nome&lt;/u&gt;" style="ellipse;whiteSpace=wrap;html=1;align=center;" parent="1" vertex="1">
          <mxGeometry x="140" y="420" width="100" height="40" as="geometry" />
        </mxCell>
        <mxCell id="7v5UEaMuyqe8QDUwAqOd-141" value="" style="endArrow=none;html=1;rounded=0;" parent="1" edge="1">
          <mxGeometry relative="1" as="geometry">
            <mxPoint x="560" y="190" as="sourcePoint" />
            <mxPoint x="670" y="40" as="targetPoint" />
            <Array as="points">
              <mxPoint x="560" y="40" />
            </Array>
          </mxGeometry>
        </mxCell>
        <mxCell id="7v5UEaMuyqe8QDUwAqOd-142" value="seguita" style="shape=rhombus;perimeter=rhombusPerimeter;whiteSpace=wrap;html=1;align=center;" parent="1" vertex="1">
          <mxGeometry x="670" y="10" width="120" height="60" as="geometry" />
        </mxCell>
        <mxCell id="7v5UEaMuyqe8QDUwAqOd-144" value="proposta_acquisto" style="whiteSpace=wrap;html=1;align=center;" parent="1" vertex="1">
          <mxGeometry x="1030" y="20" width="100" height="40" as="geometry" />
        </mxCell>
        <mxCell id="7v5UEaMuyqe8QDUwAqOd-145" value="1" style="text;strokeColor=none;fillColor=none;spacingLeft=4;spacingRight=4;overflow=hidden;rotatable=0;points=[[0,0.5],[1,0.5]];portConstraint=eastwest;fontSize=12;whiteSpace=wrap;html=1;" parent="1" vertex="1">
          <mxGeometry x="560" y="170" width="40" height="30" as="geometry" />
        </mxCell>
        <mxCell id="7v5UEaMuyqe8QDUwAqOd-146" value="n" style="text;strokeColor=none;fillColor=none;spacingLeft=4;spacingRight=4;overflow=hidden;rotatable=0;points=[[0,0.5],[1,0.5]];portConstraint=eastwest;fontSize=12;whiteSpace=wrap;html=1;" parent="1" vertex="1">
          <mxGeometry x="1010" y="40" width="20" height="20" as="geometry" />
        </mxCell>
        <mxCell id="7v5UEaMuyqe8QDUwAqOd-147" value="ha" style="shape=rhombus;perimeter=rhombusPerimeter;whiteSpace=wrap;html=1;align=center;" parent="1" vertex="1">
          <mxGeometry x="500" y="490" width="120" height="60" as="geometry" />
        </mxCell>
        <mxCell id="7v5UEaMuyqe8QDUwAqOd-148" value="" style="endArrow=none;html=1;rounded=0;entryX=0;entryY=0.5;entryDx=0;entryDy=0;" parent="1" target="7v5UEaMuyqe8QDUwAqOd-130" edge="1">
          <mxGeometry relative="1" as="geometry">
            <mxPoint x="620" y="520" as="sourcePoint" />
            <mxPoint x="780" y="520" as="targetPoint" />
          </mxGeometry>
        </mxCell>
        <mxCell id="7v5UEaMuyqe8QDUwAqOd-150" value="" style="endArrow=none;html=1;rounded=0;exitX=1;exitY=0.5;exitDx=0;exitDy=0;" parent="1" source="7v5UEaMuyqe8QDUwAqOd-144" edge="1">
          <mxGeometry relative="1" as="geometry">
            <mxPoint x="1130" y="30" as="sourcePoint" />
            <mxPoint x="1190" y="20" as="targetPoint" />
          </mxGeometry>
        </mxCell>
        <mxCell id="7v5UEaMuyqe8QDUwAqOd-151" value="produttore" style="ellipse;whiteSpace=wrap;html=1;align=center;" parent="1" vertex="1">
          <mxGeometry x="1190" width="100" height="40" as="geometry" />
        </mxCell>
        <mxCell id="7v5UEaMuyqe8QDUwAqOd-152" value="" style="endArrow=none;html=1;rounded=0;exitX=1;exitY=0.75;exitDx=0;exitDy=0;" parent="1" source="7v5UEaMuyqe8QDUwAqOd-144" edge="1">
          <mxGeometry relative="1" as="geometry">
            <mxPoint x="1090" y="70" as="sourcePoint" />
            <mxPoint x="1190" y="60" as="targetPoint" />
          </mxGeometry>
        </mxCell>
        <mxCell id="7v5UEaMuyqe8QDUwAqOd-153" value="prodotto" style="ellipse;whiteSpace=wrap;html=1;align=center;" parent="1" vertex="1">
          <mxGeometry x="1190" y="45" width="100" height="40" as="geometry" />
        </mxCell>
        <mxCell id="7v5UEaMuyqe8QDUwAqOd-154" value="" style="endArrow=none;html=1;rounded=0;exitX=1;exitY=1;exitDx=0;exitDy=0;" parent="1" source="7v5UEaMuyqe8QDUwAqOd-144" edge="1">
          <mxGeometry relative="1" as="geometry">
            <mxPoint x="1150" y="100" as="sourcePoint" />
            <mxPoint x="1200" y="110" as="targetPoint" />
          </mxGeometry>
        </mxCell>
        <mxCell id="7v5UEaMuyqe8QDUwAqOd-155" value="&lt;u&gt;codice&lt;/u&gt;" style="ellipse;whiteSpace=wrap;html=1;align=center;" parent="1" vertex="1">
          <mxGeometry x="1190" y="100" width="100" height="40" as="geometry" />
        </mxCell>
        <mxCell id="7v5UEaMuyqe8QDUwAqOd-157" value="" style="endArrow=none;html=1;rounded=0;exitX=0.75;exitY=1;exitDx=0;exitDy=0;entryX=0;entryY=0.5;entryDx=0;entryDy=0;" parent="1" source="7v5UEaMuyqe8QDUwAqOd-144" target="7v5UEaMuyqe8QDUwAqOd-158" edge="1">
          <mxGeometry relative="1" as="geometry">
            <mxPoint x="1030" y="210" as="sourcePoint" />
            <mxPoint x="1160" y="150" as="targetPoint" />
          </mxGeometry>
        </mxCell>
        <mxCell id="7v5UEaMuyqe8QDUwAqOd-158" value="URL" style="ellipse;whiteSpace=wrap;html=1;align=center;" parent="1" vertex="1">
          <mxGeometry x="1190" y="200" width="100" height="40" as="geometry" />
        </mxCell>
        <mxCell id="7v5UEaMuyqe8QDUwAqOd-160" value="" style="endArrow=none;html=1;rounded=0;exitX=0.6;exitY=1.05;exitDx=0;exitDy=0;entryX=0;entryY=0.5;entryDx=0;entryDy=0;exitPerimeter=0;" parent="1" source="7v5UEaMuyqe8QDUwAqOd-144" target="7v5UEaMuyqe8QDUwAqOd-161" edge="1">
          <mxGeometry relative="1" as="geometry">
            <mxPoint x="1070" y="70" as="sourcePoint" />
            <mxPoint x="1140" y="200" as="targetPoint" />
          </mxGeometry>
        </mxCell>
        <mxCell id="7v5UEaMuyqe8QDUwAqOd-161" value="note" style="ellipse;whiteSpace=wrap;html=1;align=center;" parent="1" vertex="1">
          <mxGeometry x="1180" y="260" width="100" height="40" as="geometry" />
        </mxCell>
        <mxCell id="7v5UEaMuyqe8QDUwAqOd-162" value="" style="endArrow=none;html=1;rounded=0;" parent="1" target="7v5UEaMuyqe8QDUwAqOd-163" edge="1">
          <mxGeometry relative="1" as="geometry">
            <mxPoint x="1070" y="60" as="sourcePoint" />
            <mxPoint x="1160" y="260" as="targetPoint" />
          </mxGeometry>
        </mxCell>
        <mxCell id="7v5UEaMuyqe8QDUwAqOd-163" value="stato" style="ellipse;whiteSpace=wrap;html=1;align=center;" parent="1" vertex="1">
          <mxGeometry x="1130" y="345" width="100" height="40" as="geometry" />
        </mxCell>
        <mxCell id="7v5UEaMuyqe8QDUwAqOd-164" value="Stato della proposta (ENUM)" style="swimlane;childLayout=stackLayout;horizontal=1;startSize=40;horizontalStack=0;rounded=1;fontSize=14;fontStyle=0;strokeWidth=2;resizeParent=0;resizeLast=1;shadow=0;dashed=0;align=center;arcSize=4;whiteSpace=wrap;html=1;" parent="1" vertex="1">
          <mxGeometry x="1230" y="315" width="160" height="105" as="geometry" />
        </mxCell>
        <mxCell id="7v5UEaMuyqe8QDUwAqOd-165" value="ACCETTATO&lt;div&gt;RIFIUTATO&lt;/div&gt;&lt;div&gt;IN_ATTESA&lt;/div&gt;&lt;div&gt;ORDINATO&lt;/div&gt;" style="align=left;strokeColor=none;fillColor=none;spacingLeft=4;fontSize=12;verticalAlign=top;resizable=0;rotatable=0;part=1;html=1;" parent="7v5UEaMuyqe8QDUwAqOd-164" vertex="1">
          <mxGeometry y="40" width="160" height="65" as="geometry" />
        </mxCell>
        <mxCell id="7v5UEaMuyqe8QDUwAqOd-166" value="" style="endArrow=none;html=1;rounded=0;exitX=0.25;exitY=1;exitDx=0;exitDy=0;entryX=0.23;entryY=0.15;entryDx=0;entryDy=0;entryPerimeter=0;" parent="1" source="7v5UEaMuyqe8QDUwAqOd-144" target="7v5UEaMuyqe8QDUwAqOd-167" edge="1">
          <mxGeometry relative="1" as="geometry">
            <mxPoint x="990" y="380" as="sourcePoint" />
            <mxPoint x="1150" y="380" as="targetPoint" />
          </mxGeometry>
        </mxCell>
        <mxCell id="7v5UEaMuyqe8QDUwAqOd-167" value="motivazione" style="ellipse;whiteSpace=wrap;html=1;align=center;" parent="1" vertex="1">
          <mxGeometry x="1110" y="420" width="100" height="40" as="geometry" />
        </mxCell>
        <mxCell id="7v5UEaMuyqe8QDUwAqOd-170" value="" style="endArrow=none;html=1;rounded=0;exitX=0.15;exitY=0.975;exitDx=0;exitDy=0;exitPerimeter=0;entryX=0;entryY=0;entryDx=0;entryDy=0;" parent="1" source="7v5UEaMuyqe8QDUwAqOd-144" target="7v5UEaMuyqe8QDUwAqOd-171" edge="1">
          <mxGeometry relative="1" as="geometry">
            <mxPoint x="950" y="340" as="sourcePoint" />
            <mxPoint x="1100" y="470" as="targetPoint" />
          </mxGeometry>
        </mxCell>
        <mxCell id="7v5UEaMuyqe8QDUwAqOd-171" value="diventa" style="shape=rhombus;perimeter=rhombusPerimeter;whiteSpace=wrap;html=1;align=center;" parent="1" vertex="1">
          <mxGeometry x="1040" y="520" width="120" height="60" as="geometry" />
        </mxCell>
        <mxCell id="7v5UEaMuyqe8QDUwAqOd-172" value="1" style="text;strokeColor=none;fillColor=none;spacingLeft=4;spacingRight=4;overflow=hidden;rotatable=0;points=[[0,0.5],[1,0.5]];portConstraint=eastwest;fontSize=12;whiteSpace=wrap;html=1;" parent="1" vertex="1">
          <mxGeometry x="1030" y="60" width="40" height="30" as="geometry" />
        </mxCell>
        <mxCell id="7v5UEaMuyqe8QDUwAqOd-173" value="" style="endArrow=none;html=1;rounded=0;" parent="1" edge="1">
          <mxGeometry relative="1" as="geometry">
            <mxPoint x="1160" y="550" as="sourcePoint" />
            <mxPoint x="1320" y="550" as="targetPoint" />
          </mxGeometry>
        </mxCell>
        <mxCell id="7v5UEaMuyqe8QDUwAqOd-174" value="n" style="text;strokeColor=none;fillColor=none;spacingLeft=4;spacingRight=4;overflow=hidden;rotatable=0;points=[[0,0.5],[1,0.5]];portConstraint=eastwest;fontSize=12;whiteSpace=wrap;html=1;" parent="1" vertex="1">
          <mxGeometry x="1300" y="530" width="40" height="30" as="geometry" />
        </mxCell>
        <mxCell id="7v5UEaMuyqe8QDUwAqOd-175" value="ordine" style="whiteSpace=wrap;html=1;align=center;" parent="1" vertex="1">
          <mxGeometry x="1320" y="530" width="100" height="40" as="geometry" />
        </mxCell>
        <mxCell id="7v5UEaMuyqe8QDUwAqOd-176" value="" style="endArrow=none;html=1;rounded=0;" parent="1" edge="1">
          <mxGeometry relative="1" as="geometry">
            <mxPoint x="1420" y="550" as="sourcePoint" />
            <mxPoint x="1500" y="550" as="targetPoint" />
          </mxGeometry>
        </mxCell>
        <mxCell id="7v5UEaMuyqe8QDUwAqOd-177" value="stato" style="ellipse;whiteSpace=wrap;html=1;align=center;" parent="1" vertex="1">
          <mxGeometry x="1500" y="530" width="100" height="40" as="geometry" />
        </mxCell>
        <mxCell id="7v5UEaMuyqe8QDUwAqOd-178" value="Stato dell&#39;ordine (ENUM)" style="swimlane;childLayout=stackLayout;horizontal=1;startSize=40;horizontalStack=0;rounded=1;fontSize=14;fontStyle=0;strokeWidth=2;resizeParent=0;resizeLast=1;shadow=0;dashed=0;align=center;arcSize=4;whiteSpace=wrap;html=1;" parent="1" vertex="1">
          <mxGeometry x="1600" y="490" width="250" height="100" as="geometry" />
        </mxCell>
        <mxCell id="7v5UEaMuyqe8QDUwAqOd-179" value="ACCETTATO&lt;div&gt;RESPINTO_NON_CONFORME&lt;/div&gt;&lt;div&gt;&lt;span style=&quot;background-color: initial;&quot;&gt;RESPINTO_&lt;/span&gt;NON_ FUNZIONANTE&lt;/div&gt;" style="align=left;strokeColor=none;fillColor=none;spacingLeft=4;fontSize=12;verticalAlign=top;resizable=0;rotatable=0;part=1;html=1;" parent="7v5UEaMuyqe8QDUwAqOd-178" vertex="1">
          <mxGeometry y="40" width="250" height="60" as="geometry" />
        </mxCell>
        <mxCell id="LzhHTXdj2_SCo1Qwo-w6-1" value="Nome del tipo utente (ENUM)" style="swimlane;childLayout=stackLayout;horizontal=1;startSize=40;horizontalStack=0;rounded=1;fontSize=14;fontStyle=0;strokeWidth=2;resizeParent=0;resizeLast=1;shadow=0;dashed=0;align=center;arcSize=4;whiteSpace=wrap;html=1;" parent="1" vertex="1">
          <mxGeometry x="770" y="600" width="160" height="100" as="geometry" />
        </mxCell>
        <mxCell id="LzhHTXdj2_SCo1Qwo-w6-2" value="ORDINANTE&lt;div&gt;TECNICO&lt;/div&gt;&lt;div&gt;AMMINISTRATORE&lt;/div&gt;" style="align=left;strokeColor=none;fillColor=none;spacingLeft=4;fontSize=12;verticalAlign=top;resizable=0;rotatable=0;part=1;html=1;" parent="LzhHTXdj2_SCo1Qwo-w6-1" vertex="1">
          <mxGeometry y="40" width="160" height="60" as="geometry" />
        </mxCell>
        <mxCell id="LzhHTXdj2_SCo1Qwo-w6-3" value="" style="endArrow=none;html=1;rounded=0;exitX=1;exitY=0.5;exitDx=0;exitDy=0;entryX=0;entryY=0.5;entryDx=0;entryDy=0;" parent="1" source="7v5UEaMuyqe8QDUwAqOd-89" target="LzhHTXdj2_SCo1Qwo-w6-12" edge="1">
          <mxGeometry width="50" height="50" relative="1" as="geometry">
            <mxPoint x="240" y="200" as="sourcePoint" />
            <mxPoint x="320" y="220" as="targetPoint" />
          </mxGeometry>
        </mxCell>
        <mxCell id="LzhHTXdj2_SCo1Qwo-w6-4" value="" style="endArrow=none;html=1;rounded=0;entryX=0.5;entryY=1;entryDx=0;entryDy=0;exitX=0.5;exitY=0;exitDx=0;exitDy=0;" parent="1" source="7v5UEaMuyqe8QDUwAqOd-92" target="7v5UEaMuyqe8QDUwAqOd-89" edge="1">
          <mxGeometry width="50" height="50" relative="1" as="geometry">
            <mxPoint x="30" y="320" as="sourcePoint" />
            <mxPoint x="80" y="270" as="targetPoint" />
          </mxGeometry>
        </mxCell>
        <mxCell id="LzhHTXdj2_SCo1Qwo-w6-5" value="" style="endArrow=none;html=1;rounded=0;entryX=0.5;entryY=1;entryDx=0;entryDy=0;exitX=0.5;exitY=0;exitDx=0;exitDy=0;" parent="1" source="7v5UEaMuyqe8QDUwAqOd-89" target="7v5UEaMuyqe8QDUwAqOd-136" edge="1">
          <mxGeometry width="50" height="50" relative="1" as="geometry">
            <mxPoint x="30" y="240" as="sourcePoint" />
            <mxPoint x="80" y="190" as="targetPoint" />
          </mxGeometry>
        </mxCell>
        <mxCell id="LzhHTXdj2_SCo1Qwo-w6-6" value="" style="endArrow=none;html=1;rounded=0;entryX=0.5;entryY=1;entryDx=0;entryDy=0;exitX=0.5;exitY=0;exitDx=0;exitDy=0;" parent="1" source="7v5UEaMuyqe8QDUwAqOd-89" target="7v5UEaMuyqe8QDUwAqOd-138" edge="1">
          <mxGeometry width="50" height="50" relative="1" as="geometry">
            <mxPoint x="130" y="120" as="sourcePoint" />
            <mxPoint x="180" y="70" as="targetPoint" />
          </mxGeometry>
        </mxCell>
        <mxCell id="LzhHTXdj2_SCo1Qwo-w6-7" value="1" style="text;strokeColor=none;fillColor=none;spacingLeft=4;spacingRight=4;overflow=hidden;rotatable=0;points=[[0,0.5],[1,0.5]];portConstraint=eastwest;fontSize=12;whiteSpace=wrap;html=1;" parent="1" vertex="1">
          <mxGeometry x="170" y="225" width="30" height="25" as="geometry" />
        </mxCell>
        <mxCell id="LzhHTXdj2_SCo1Qwo-w6-8" value="" style="endArrow=none;html=1;rounded=0;entryX=0.5;entryY=1;entryDx=0;entryDy=0;exitX=0.5;exitY=0;exitDx=0;exitDy=0;" parent="1" source="7v5UEaMuyqe8QDUwAqOd-140" target="7v5UEaMuyqe8QDUwAqOd-81" edge="1">
          <mxGeometry width="50" height="50" relative="1" as="geometry">
            <mxPoint x="40" y="490" as="sourcePoint" />
            <mxPoint x="90" y="440" as="targetPoint" />
          </mxGeometry>
        </mxCell>
        <mxCell id="LzhHTXdj2_SCo1Qwo-w6-9" value="1" style="text;strokeColor=none;fillColor=none;spacingLeft=4;spacingRight=4;overflow=hidden;rotatable=0;points=[[0,0.5],[1,0.5]];portConstraint=eastwest;fontSize=12;whiteSpace=wrap;html=1;" parent="1" vertex="1">
          <mxGeometry x="240" y="185" width="30" height="25" as="geometry" />
        </mxCell>
        <mxCell id="LzhHTXdj2_SCo1Qwo-w6-10" value="" style="endArrow=none;html=1;rounded=0;entryX=0;entryY=1;entryDx=0;entryDy=0;exitX=1;exitY=0.5;exitDx=0;exitDy=0;" parent="1" source="7v5UEaMuyqe8QDUwAqOd-81" target="7v5UEaMuyqe8QDUwAqOd-83" edge="1">
          <mxGeometry width="50" height="50" relative="1" as="geometry">
            <mxPoint x="320" y="490" as="sourcePoint" />
            <mxPoint x="370" y="440" as="targetPoint" />
          </mxGeometry>
        </mxCell>
        <mxCell id="LzhHTXdj2_SCo1Qwo-w6-11" value="" style="endArrow=none;html=1;rounded=0;entryX=0;entryY=0.5;entryDx=0;entryDy=0;exitX=1;exitY=0;exitDx=0;exitDy=0;" parent="1" source="7v5UEaMuyqe8QDUwAqOd-83" target="7v5UEaMuyqe8QDUwAqOd-82" edge="1">
          <mxGeometry width="50" height="50" relative="1" as="geometry">
            <mxPoint x="340" y="240" as="sourcePoint" />
            <mxPoint x="420" y="230" as="targetPoint" />
          </mxGeometry>
        </mxCell>
        <mxCell id="LzhHTXdj2_SCo1Qwo-w6-12" value="fa parte" style="shape=rhombus;perimeter=rhombusPerimeter;whiteSpace=wrap;html=1;align=center;" parent="1" vertex="1">
          <mxGeometry x="310" y="180" width="120" height="60" as="geometry" />
        </mxCell>
        <mxCell id="LzhHTXdj2_SCo1Qwo-w6-13" value="n" style="text;html=1;align=center;verticalAlign=middle;whiteSpace=wrap;rounded=0;" parent="1" vertex="1">
          <mxGeometry x="240" y="355" width="20" height="15" as="geometry" />
        </mxCell>
        <mxCell id="LzhHTXdj2_SCo1Qwo-w6-14" value="n" style="text;html=1;align=center;verticalAlign=middle;whiteSpace=wrap;rounded=0;" parent="1" vertex="1">
          <mxGeometry x="480" y="215" width="20" height="15" as="geometry" />
        </mxCell>
        <mxCell id="LzhHTXdj2_SCo1Qwo-w6-15" value="Stato della richiesta (ENUM)" style="swimlane;childLayout=stackLayout;horizontal=1;startSize=40;horizontalStack=0;rounded=1;fontSize=14;fontStyle=0;strokeWidth=2;resizeParent=0;resizeLast=1;shadow=0;dashed=0;align=center;arcSize=4;whiteSpace=wrap;html=1;" parent="1" vertex="1">
          <mxGeometry x="800" y="180" width="190" height="110" as="geometry" />
        </mxCell>
        <mxCell id="LzhHTXdj2_SCo1Qwo-w6-16" value="IN_ATTESA&lt;div&gt;PRESA_IN_CARICO&lt;/div&gt;&lt;div&gt;RISOLTA&lt;/div&gt;&lt;div&gt;ORDINATA&lt;/div&gt;" style="align=left;strokeColor=none;fillColor=none;spacingLeft=4;fontSize=12;verticalAlign=top;resizable=0;rotatable=0;part=1;html=1;" parent="LzhHTXdj2_SCo1Qwo-w6-15" vertex="1">
          <mxGeometry y="40" width="190" height="70" as="geometry" />
        </mxCell>
        <mxCell id="LzhHTXdj2_SCo1Qwo-w6-17" value="" style="endArrow=none;html=1;rounded=0;entryX=1;entryY=0.5;entryDx=0;entryDy=0;exitX=0;exitY=0.5;exitDx=0;exitDy=0;" parent="1" source="7v5UEaMuyqe8QDUwAqOd-144" target="7v5UEaMuyqe8QDUwAqOd-142" edge="1">
          <mxGeometry width="50" height="50" relative="1" as="geometry">
            <mxPoint x="1000" y="90" as="sourcePoint" />
            <mxPoint x="880" y="110" as="targetPoint" />
          </mxGeometry>
        </mxCell>
        <mxCell id="LzhHTXdj2_SCo1Qwo-w6-19" value="prezzo" style="ellipse;whiteSpace=wrap;html=1;align=center;" parent="1" vertex="1">
          <mxGeometry x="1190" y="150" width="100" height="40" as="geometry" />
        </mxCell>
        <mxCell id="LzhHTXdj2_SCo1Qwo-w6-20" value="" style="endArrow=none;html=1;rounded=0;entryX=0.88;entryY=0.996;entryDx=0;entryDy=0;entryPerimeter=0;exitX=0;exitY=0.5;exitDx=0;exitDy=0;" parent="1" source="LzhHTXdj2_SCo1Qwo-w6-19" target="7v5UEaMuyqe8QDUwAqOd-144" edge="1">
          <mxGeometry width="50" height="50" relative="1" as="geometry">
            <mxPoint x="1340" y="210" as="sourcePoint" />
            <mxPoint x="1390" y="160" as="targetPoint" />
          </mxGeometry>
        </mxCell>
        <mxCell id="0TjWWIONGkaisPFkyDD6-1" value="codice_prodotto" style="ellipse;whiteSpace=wrap;html=1;align=center;" vertex="1" parent="1">
          <mxGeometry x="1290" y="70" width="100" height="40" as="geometry" />
        </mxCell>
        <mxCell id="0TjWWIONGkaisPFkyDD6-3" value="" style="endArrow=none;html=1;rounded=0;entryX=1;entryY=0.75;entryDx=0;entryDy=0;exitX=0;exitY=0.5;exitDx=0;exitDy=0;" edge="1" parent="1" source="0TjWWIONGkaisPFkyDD6-1" target="7v5UEaMuyqe8QDUwAqOd-144">
          <mxGeometry width="50" height="50" relative="1" as="geometry">
            <mxPoint x="1370" y="200" as="sourcePoint" />
            <mxPoint x="1420" y="150" as="targetPoint" />
            <Array as="points">
              <mxPoint x="1200" y="90" />
            </Array>
          </mxGeometry>
        </mxCell>
      </root>
    </mxGraphModel>
  </diagram>
</mxfile>
